<?xml version="1.0" encoding="utf-8"?>
<!-- Generator: Adobe Illustrator 23.1.1, SVG Export Plug-In . SVG Version: 6.00 Build 0)  -->
<svg version="1.1" id="Layer_1" xmlns="http://www.w3.org/2000/svg" xmlns:xlink="http://www.w3.org/1999/xlink" x="0px" y="0px"
	 viewBox="0 0 32 32" style="enable-background:new 0 0 32 32;" xml:space="preserve">
<style type="text/css">
	.st0{fill:#231F20;}
	.st1{fill-rule:evenodd;clip-rule:evenodd;fill:#231F20;}
	.st2{fill:#121212;}
	.st3{fill:#2397D3;}
	.st4{fill:#6E6BB0;}
	.st5{fill:#E91D25;}
	.st6{fill:#221F1F;}
	.st7{fill:#253C7F;}
	.st8{fill:#159AD6;}
	.st9{fill:#252E64;}
	.st10{fill-rule:evenodd;clip-rule:evenodd;fill:#122E34;}
	.st11{fill-rule:evenodd;clip-rule:evenodd;fill:#E2626F;}
	.st12{fill-rule:evenodd;clip-rule:evenodd;fill:#EA9C3D;}
	.st13{fill-rule:evenodd;clip-rule:evenodd;fill:#23AF94;}
	.st14{fill:#FFFFFF;}
	.st15{fill:#D41774;}
	.st16{fill:#0279BD;}
	.st17{fill-rule:evenodd;clip-rule:evenodd;fill:#222160;}
	.st18{fill-rule:evenodd;clip-rule:evenodd;fill:#FFFFFF;}
	.st19{fill-rule:evenodd;clip-rule:evenodd;fill:#EC1E24;}
	.st20{fill:#EB8023;}
	.st21{fill:#3A3A3A;}
	.st22{fill:#2A3685;}
	.st23{fill:#FDBD10;}
	.st24{fill:#256FB7;}
	.st25{fill-rule:evenodd;clip-rule:evenodd;fill:#6C706A;}
	.st26{fill-rule:evenodd;clip-rule:evenodd;fill:#63BB46;}
	.st27{fill:#0C89C7;}
	.st28{fill:#E11F26;}
	.st29{fill:url(#path6338_3_);}
	.st30{fill:url(#path6349_3_);}
	.st31{fill:url(#path6360_3_);}
	.st32{fill:url(#path6371_3_);}
	.st33{fill:url(#path6384_3_);}
	.st34{clip-path:url(#SVGID_4_);}
	.st35{fill-rule:evenodd;clip-rule:evenodd;fill:#F69C34;}
	.st36{fill-rule:evenodd;clip-rule:evenodd;fill:#333E47;}
	.st37{clip-path:url(#SVGID_6_);}
	.st38{fill-rule:evenodd;clip-rule:evenodd;fill:url(#Fill-1_4_);}
	.st39{fill:#2C6FB6;}
	.st40{fill:#5F6369;}
	.st41{fill:#547DBE;}
	.st42{fill:#34A751;}
	.st43{fill:#F8BB15;}
	.st44{fill:#E94435;}
	.st45{fill:#201D1C;}
	.st46{fill:#ED7723;}
	.st47{fill:url(#path6338_4_);}
	.st48{fill:url(#path6349_4_);}
	.st49{fill:url(#path6360_4_);}
	.st50{fill:url(#path6371_4_);}
	.st51{fill:url(#path6384_4_);}
	.st52{fill-rule:evenodd;clip-rule:evenodd;fill:url(#Fill-1_5_);}
	.st53{fill:#040404;}
	.st54{fill:#DB1E35;}
	.st55{fill:#DB1E34;}
	.st56{fill:#030404;}
	.st57{fill:#DB1E3C;}
	.st58{fill:#DB1E3B;}
	.st59{fill:#E23259;}
	.st60{fill:none;}
	.st61{fill-rule:evenodd;clip-rule:evenodd;fill:#009345;}
	.st62{fill:#1D1D1B;}
	.st63{fill:#E20D17;}
	.st64{fill:#EA610A;}
	.st65{fill:#F59E00;}
	.st66{fill:url(#path6338_5_);}
	.st67{fill:url(#path6349_5_);}
	.st68{fill:url(#path6360_5_);}
	.st69{fill:url(#path6371_5_);}
	.st70{fill:url(#path6384_5_);}
	.st71{clip-path:url(#SVGID_12_);}
	.st72{fill-rule:evenodd;clip-rule:evenodd;fill:url(#Fill-1_6_);}
	.st73{fill:#0D4269;}
	.st74{fill:#3078BC;}
</style>
<path class="st0" d="M28.99,7.99C28.96,7.46,28.52,7,28,7L22.6,7l0.01-1.32c0-3.13-2.97-5.68-6.62-5.68S9.37,2.55,9.37,5.68L9.37,7
	H4C3.47,7,3.05,7.46,3.01,7.99L1.66,30.94C1.64,31.69,2.38,32,2.66,32h26.67c0.28,0,1.07-0.33,1-1.06L28.99,7.99z M11.37,5.68
	c0-2.03,2.07-3.68,4.62-3.68s4.62,1.65,4.62,3.68L20.6,7h-9.24L11.37,5.68z M9.37,9l-0.01,2c0,0.55,0.45,1,1,1c0.55,0,1-0.45,1-1
	l0.01-2h9.24l0,2c0,0.55,0.45,1,1,1c0.55,0,1-0.45,1-1l0-2h4.35l0.87,14H4.16L5.01,9H9.37z M3.72,30l0.35-5.56h23.84L28.26,30H3.72z
	"/>
</svg>
