<?xml version="1.0" encoding="utf-8"?>
<!-- Generator: Adobe Illustrator 23.1.1, SVG Export Plug-In . SVG Version: 6.00 Build 0)  -->
<svg version="1.1" id="Layer_1" xmlns="http://www.w3.org/2000/svg" xmlns:xlink="http://www.w3.org/1999/xlink" x="0px" y="0px"
	 viewBox="0 0 32 32" style="enable-background:new 0 0 32 32;" xml:space="preserve">
<style type="text/css">
	.st0{fill:#231F20;}
	.st1{fill-rule:evenodd;clip-rule:evenodd;fill:#231F20;}
	.st2{fill:#121212;}
	.st3{fill:#2397D3;}
	.st4{fill:#6E6BB0;}
	.st5{fill:#E91D25;}
	.st6{fill:#221F1F;}
	.st7{fill:#253C7F;}
	.st8{fill:#159AD6;}
	.st9{fill:#252E64;}
	.st10{fill-rule:evenodd;clip-rule:evenodd;fill:#122E34;}
	.st11{fill-rule:evenodd;clip-rule:evenodd;fill:#E2626F;}
	.st12{fill-rule:evenodd;clip-rule:evenodd;fill:#EA9C3D;}
	.st13{fill-rule:evenodd;clip-rule:evenodd;fill:#23AF94;}
	.st14{fill:#FFFFFF;}
	.st15{fill:#D41774;}
	.st16{fill:#0279BD;}
	.st17{fill-rule:evenodd;clip-rule:evenodd;fill:#222160;}
	.st18{fill-rule:evenodd;clip-rule:evenodd;fill:#FFFFFF;}
	.st19{fill-rule:evenodd;clip-rule:evenodd;fill:#EC1E24;}
	.st20{fill:#EB8023;}
	.st21{fill:#3A3A3A;}
	.st22{fill:#2A3685;}
	.st23{fill:#FDBD10;}
	.st24{fill:#256FB7;}
	.st25{fill-rule:evenodd;clip-rule:evenodd;fill:#6C706A;}
	.st26{fill-rule:evenodd;clip-rule:evenodd;fill:#63BB46;}
	.st27{fill:#0C89C7;}
	.st28{fill:#E11F26;}
	.st29{fill:url(#path6338_3_);}
	.st30{fill:url(#path6349_3_);}
	.st31{fill:url(#path6360_3_);}
	.st32{fill:url(#path6371_3_);}
	.st33{fill:url(#path6384_3_);}
	.st34{clip-path:url(#SVGID_4_);}
	.st35{fill-rule:evenodd;clip-rule:evenodd;fill:#F69C34;}
	.st36{fill-rule:evenodd;clip-rule:evenodd;fill:#333E47;}
	.st37{clip-path:url(#SVGID_6_);}
	.st38{fill-rule:evenodd;clip-rule:evenodd;fill:url(#Fill-1_4_);}
	.st39{fill:#2C6FB6;}
	.st40{fill:#5F6369;}
	.st41{fill:#547DBE;}
	.st42{fill:#34A751;}
	.st43{fill:#F8BB15;}
	.st44{fill:#E94435;}
	.st45{fill:#201D1C;}
	.st46{fill:#ED7723;}
	.st47{fill:url(#path6338_4_);}
	.st48{fill:url(#path6349_4_);}
	.st49{fill:url(#path6360_4_);}
	.st50{fill:url(#path6371_4_);}
	.st51{fill:url(#path6384_4_);}
	.st52{fill-rule:evenodd;clip-rule:evenodd;fill:url(#Fill-1_5_);}
	.st53{fill:#040404;}
	.st54{fill:#DB1E35;}
	.st55{fill:#DB1E34;}
	.st56{fill:#030404;}
	.st57{fill:#DB1E3C;}
	.st58{fill:#DB1E3B;}
	.st59{fill:#E23259;}
	.st60{fill:none;}
	.st61{fill-rule:evenodd;clip-rule:evenodd;fill:#009345;}
	.st62{fill:#1D1D1B;}
	.st63{fill:#E20D17;}
	.st64{fill:#EA610A;}
	.st65{fill:#F59E00;}
	.st66{fill:url(#path6338_5_);}
	.st67{fill:url(#path6349_5_);}
	.st68{fill:url(#path6360_5_);}
	.st69{fill:url(#path6371_5_);}
	.st70{fill:url(#path6384_5_);}
	.st71{clip-path:url(#SVGID_12_);}
	.st72{fill-rule:evenodd;clip-rule:evenodd;fill:url(#Fill-1_6_);}
	.st73{fill:#0D4269;}
	.st74{fill:#3078BC;}
</style>
<g>
	<path class="st0" d="M0.66,4.63h11.27C12.23,6.54,13.89,8,15.88,8c2,0,3.65-1.46,3.95-3.37h11.5c0.37,0,0.66-0.3,0.66-0.66
		s-0.3-0.66-0.66-0.66H19.83C19.5,1.43,17.86,0,15.88,0s-3.61,1.43-3.94,3.31H0.66C0.3,3.31,0,3.6,0,3.97S0.3,4.63,0.66,4.63z
		 M15.88,1.38c1.45,0,2.63,1.17,2.63,2.62s-1.18,2.62-2.63,2.62c-1.45,0-2.63-1.17-2.63-2.62S14.43,1.38,15.88,1.38z"/>
	<path class="st0" d="M31.34,15.31h-3.55C27.46,13.43,25.82,12,23.85,12s-3.61,1.43-3.94,3.31H0.67c-0.37,0-0.66,0.31-0.66,0.68
		c0,0.37,0.3,0.64,0.66,0.64H19.9c0.3,1.91,1.96,3.37,3.95,3.37c2,0,3.65-1.46,3.95-3.37h3.53c0.37,0,0.66-0.3,0.66-0.66
		C32,15.6,31.7,15.31,31.34,15.31z M23.85,18.62c-1.45,0-2.63-1.17-2.63-2.62s1.18-2.62,2.63-2.62c1.45,0,2.63,1.17,2.63,2.62
		S25.3,18.62,23.85,18.62z"/>
	<path class="st0" d="M31.34,27.31H12.55C12.22,25.43,10.58,24,8.6,24s-3.61,1.43-3.94,3.31h-4C0.3,27.31,0,27.6,0,27.97
		s0.3,0.66,0.66,0.66h3.99C4.95,30.54,6.61,32,8.6,32s3.65-1.46,3.95-3.37h18.78c0.37,0,0.66-0.3,0.66-0.66S31.7,27.31,31.34,27.31z
		 M8.67,30.61c-1.46,0-2.65-1.18-2.65-2.64s1.18-2.64,2.65-2.64c1.46,0,2.65,1.18,2.65,2.64S10.13,30.61,8.67,30.61z"/>
</g>
</svg>
