<?xml version="1.0" encoding="utf-8"?>
<!-- Generator: Adobe Illustrator 25.3.1, SVG Export Plug-In . SVG Version: 6.00 Build 0)  -->
<svg version="1.1" id="Layer_1" xmlns="http://www.w3.org/2000/svg" xmlns:xlink="http://www.w3.org/1999/xlink" x="0px" y="0px"
	 viewBox="0 0 102.05 18.43" style="enable-background:new 0 0 102.05 18.43;" xml:space="preserve">
<style type="text/css">
	.st0{fill:#2CD000;}
</style>
<path class="st0" d="M27.54,583.32h9.84c3.66,0,5.7,2.28,5.7,5.1c0,2.52-1.62,4.2-3.48,4.59c2.13,0.33,3.87,2.46,3.87,4.92
	c0,3.09-2.07,5.4-5.82,5.4H27.54V583.32z M36.66,591.6c1.8,0,2.82-1.08,2.82-2.58s-1.02-2.61-2.82-2.61h-5.61v5.19H36.66z
	 M36.81,600.24c1.92,0,3.06-1.05,3.06-2.79c0-1.5-1.05-2.76-3.06-2.76h-5.76v5.55H36.81z"/>
<g>
	<polygon points="9.18,14.1 7.92,15.35 4.31,15.35 3.06,14.1 3.06,0 0,0 0,15.35 3.06,18.43 9.18,18.43 12.24,15.35 12.24,0 9.18,0 
			"/>
	<polygon points="27.53,11.76 21.41,0 18.36,0 18.36,18.43 21.41,18.43 21.41,6.69 27.53,18.43 30.59,18.43 30.59,0 27.53,0 	"/>
	<rect x="36.71" width="3.06" height="18.43"/>
	<path d="M49.16,0l-3.21,3.07v12.28l3.21,3.07h6.39l3.06-3.07V3.07L55.56,0H49.16z M55.56,14.19l-1.32,1.35h-3.76l-1.47-1.35V4.27
		l1.47-1.44h3.76l1.32,1.44V14.19z"/>
	<polygon points="73.94,11.76 67.82,0 64.76,0 64.76,18.43 67.82,18.43 67.82,6.69 73.94,18.43 77,18.43 77,0 73.94,0 	"/>
	<rect x="81.05" y="15.35" width="20.24" height="3.07"/>
	<path d="M82.1,9.85l0.5,1.03c0.08-0.05,0.11-0.09,0.11-0.19c0.38-0.33,0.83-0.75,1.27-1.18c0.95,1.22,2.24,1.22,4.46,1.22
		c1.05,0,2.21-0.02,2.98-0.05c0.05-0.28,0.19-0.73,0.31-0.95c-0.9,0.07-2.31,0.1-3.48,0.1c-1.81,0-3.16,0-3.86-1.13V5.36H82.2v0.9
		h1.26v2.51C83.02,9.17,82.51,9.56,82.1,9.85z"/>
	<path d="M87.59,9.49h0.95v-1h2.98V7.68h-2.98V7.06h2.32V3.63h-2.32V3.04h2.83v-0.8h-2.83v-0.7c0.15-0.02,0.21-0.08,0.22-0.16
		l-1.17-0.07v0.93h-2.7v0.8h2.7v0.59h-2.22v3.43h2.22v0.61h-2.85v0.81h2.85V9.49z M88.54,4.34h1.38v0.67h-1.38V4.34z M88.54,5.68
		h1.38v0.68h-1.38V5.68z M86.28,4.34h1.32v0.67h-1.32V4.34z M86.28,6.36V5.68h1.32v0.68H86.28z"/>
	<path d="M83.89,3.85l0.79-0.6c-0.32-0.51-1.04-1.21-1.65-1.67l-0.74,0.54C82.9,2.62,83.59,3.34,83.89,3.85z"/>
	<path d="M100.36,10.92v-4.2h-6.41v4.2h0.95v-0.41h4.47v0.41H100.36z M94.9,9.64V7.59h4.47v2.05H94.9z"/>
	<path d="M97.68,1.56c0.12-0.02,0.21-0.08,0.25-0.18L96.59,1.3c-0.8,1.32-2.52,2.91-4.31,3.81c0.19,0.19,0.46,0.55,0.59,0.77
		c0.57-0.31,1.14-0.68,1.67-1.07v0.73h5.19V4.78c0.55,0.4,1.13,0.77,1.68,1.06c0.17-0.3,0.4-0.62,0.63-0.87
		C100.48,4.28,98.68,2.91,97.68,1.56z M94.73,4.67c0.99-0.76,1.84-1.62,2.37-2.39c0.58,0.8,1.49,1.65,2.48,2.39H94.73z"/>
</g>
</svg>
